<?xml version="1.0" encoding="utf-8"?>
<!-- Generator: Adobe Illustrator 26.1.0, SVG Export Plug-In . SVG Version: 6.00 Build 0)  -->
<svg version="1.1" id="Layer_1" xmlns="http://www.w3.org/2000/svg" xmlns:xlink="http://www.w3.org/1999/xlink" x="0px" y="0px"
	 viewBox="0 0 435.16 94.08" style="enable-background:new 0 0 435.16 94.08;" xml:space="preserve">
<style type="text/css">
	.st0{fill:#002856;}
	.st1{fill:url(#SVGID_1_);}
</style>
<g>
	<path class="st0" d="M273.35,35.86V0h6.58v33.31c0,7.54,1.37,13.52,4.02,17.93c2.65,4.41,7.07,6.56,13.06,6.56
		c6.58,0,11.19-1.96,14.04-5.78c2.85-3.82,4.22-9.31,4.22-16.36V0h3.63v36.94c0,7.54-1.86,13.52-5.59,17.73
		c-3.73,4.31-9.23,6.47-16.4,6.47c-7.95,0-13.84-2.16-17.67-6.57C275.31,50.17,273.35,43.99,273.35,35.86 M377.91,59.87h-3.44
		l-40.06-49.78v49.78h-3.33V0h3.53l39.96,49.58V0h3.34V59.87z M397.85,40.46l-7.26,19.4h-4.71L410.12,0h2.94l22.09,59.87h-7.26
		l-6.87-19.4H397.85z M409.72,8.62l-10.9,29.2h21.21L409.72,8.62z M246.02,60.14h-6.49V33.99L217.9,0.08h7.27l18.52,29.1l17.06-29.1
		h5.7c-6.19,10.91-13.07,22.21-20.45,33.72V60.14z"/>
	<g>
		<path class="st0" d="M218.48,86.75c0-1.41,0.31-2.71,0.93-3.87c0.59-1.15,1.47-2.06,2.59-2.74c1.09-0.66,2.37-1,3.78-1
			c1.59,0,2.9,0.38,4,1.09l-0.56,0.94c-1-0.78-2.06-1.15-3.21-1.15c-1.22,0-2.25,0.34-3.03,1c-0.81,0.66-1.4,1.5-1.75,2.5
			c-0.37,1-0.56,2.03-0.56,3.09c0,1.97,0.47,3.53,1.37,4.68c0.91,1.16,2.18,1.75,3.84,1.75c1.4,0,2.56-0.41,3.49-1.19l0.47,0.72
			c-0.5,0.47-1.16,0.81-1.94,1.09c-0.81,0.28-1.66,0.44-2.5,0.44c-2.15,0-3.87-0.66-5.09-2C219.1,90.74,218.48,88.97,218.48,86.75"
			/>
		<path class="st0" d="M241.07,90.53c0.41-0.78,0.59-1.75,0.59-2.9v-1.41c-1.06-0.16-1.87-0.22-2.46-0.22
			c-1.66,0-2.93,0.31-3.84,0.94c-0.9,0.63-1.34,1.56-1.34,2.78c0,1,0.31,1.78,0.91,2.34c0.59,0.59,1.38,0.87,2.4,0.87
			c0.78,0,1.5-0.19,2.15-0.59C240.13,91.93,240.66,91.34,241.07,90.53 M243.6,84.94v8.74h-1.25l-0.72-2.65
			c-0.41,1.03-1.06,1.78-1.91,2.28c-0.87,0.53-1.87,0.78-3.03,0.78c-1.34,0-2.49-0.34-3.4-1.06c-0.91-0.72-1.38-1.75-1.38-3.15
			c0-1.53,0.59-2.71,1.81-3.5c1.19-0.78,2.81-1.19,4.9-1.19c1.03,0,2.06,0.09,3.03,0.25v-0.69c0-1.53-0.25-2.68-0.78-3.46
			c-0.53-0.78-1.47-1.16-2.87-1.16c-1.65,0-3.12,0.56-4.46,1.72l-0.56-0.94c0.66-0.56,1.47-1,2.4-1.31c0.94-0.31,1.9-0.47,2.9-0.47
			c1.78,0,3.09,0.47,3.99,1.37C243.16,81.44,243.6,82.91,243.6,84.94"/>
		<path class="st0" d="M258.14,86.72v-4.09c-0.5-0.91-1.09-1.56-1.81-1.97c-0.72-0.41-1.47-0.59-2.25-0.59
			c-1.53,0-2.68,0.66-3.46,1.94c-0.81,1.28-1.22,2.87-1.22,4.74c0,1.06,0.16,2.09,0.5,3.06c0.35,0.97,0.81,1.78,1.47,2.37
			c0.65,0.59,1.4,0.9,2.28,0.9c1.37,0,2.46-0.56,3.27-1.72C257.73,90.25,258.14,88.68,258.14,86.72 M260.07,93.68h-1.22l-0.72-2.68
			c-0.37,0.93-1,1.68-1.87,2.25c-0.88,0.56-1.87,0.84-2.96,0.84c-1.84,0-3.28-0.65-4.37-1.97c-1.09-1.31-1.65-3.09-1.65-5.37
			c0-1.62,0.31-2.99,0.94-4.15c0.59-1.15,1.4-2,2.43-2.59c1-0.59,2.06-0.88,3.21-0.88c0.97,0,1.81,0.16,2.5,0.5
			c0.69,0.34,1.28,0.81,1.78,1.47v-7.9h1.94V93.68z"/>
		<path class="st0" d="M273.21,90.53c0.41-0.78,0.59-1.75,0.59-2.9v-1.41c-1.06-0.16-1.87-0.22-2.46-0.22
			c-1.66,0-2.93,0.31-3.84,0.94c-0.91,0.63-1.34,1.56-1.34,2.78c0,1,0.31,1.78,0.91,2.34c0.59,0.59,1.38,0.87,2.4,0.87
			c0.78,0,1.5-0.19,2.15-0.59C272.27,91.93,272.8,91.34,273.21,90.53 M275.74,84.94v8.74h-1.25l-0.72-2.65
			c-0.4,1.03-1.06,1.78-1.9,2.28c-0.87,0.53-1.87,0.78-3.03,0.78c-1.34,0-2.49-0.34-3.4-1.06c-0.91-0.72-1.38-1.75-1.38-3.15
			c0-1.53,0.59-2.71,1.81-3.5c1.19-0.78,2.81-1.19,4.9-1.19c1.03,0,2.06,0.09,3.03,0.25v-0.69c0-1.53-0.25-2.68-0.78-3.46
			c-0.53-0.78-1.47-1.16-2.87-1.16c-1.65,0-3.12,0.56-4.46,1.72l-0.56-0.94c0.66-0.56,1.47-1,2.4-1.31c0.94-0.31,1.9-0.47,2.9-0.47
			c1.78,0,3.09,0.47,3.99,1.37C275.3,81.44,275.74,82.91,275.74,84.94"/>
		<path class="st0" d="M294.86,86.81c-1.12,2.75-2.15,5.02-3.06,6.87h-1.09l-5.59-14.14h2.13l4.55,11.77
			c0.66-1.37,1.41-3.28,2.22-5.68c0.78-2.4,1.38-4.43,1.78-6.09h1.78C296.86,81.63,295.96,84.07,294.86,86.81"/>
		<path class="st0" d="M302.63,93.68h-1.97V79.54h1.97V93.68z M300.23,75.33c0-0.41,0.13-0.72,0.38-0.97
			c0.25-0.25,0.59-0.37,1.06-0.37c0.44,0,0.78,0.13,1.03,0.34c0.25,0.25,0.37,0.56,0.37,0.97c0,0.41-0.12,0.72-0.37,0.97
			c-0.25,0.25-0.59,0.37-1.03,0.37c-0.44,0-0.78-0.12-1.03-0.37C300.36,76.01,300.23,75.7,300.23,75.33"/>
		<path class="st0" d="M317.89,86.72v-4.09c-0.5-0.91-1.09-1.56-1.81-1.97c-0.72-0.41-1.47-0.59-2.25-0.59
			c-1.53,0-2.68,0.66-3.46,1.94c-0.81,1.28-1.22,2.87-1.22,4.74c0,1.06,0.16,2.09,0.5,3.06c0.35,0.97,0.81,1.78,1.47,2.37
			c0.65,0.59,1.4,0.9,2.28,0.9c1.37,0,2.46-0.56,3.28-1.72C317.49,90.25,317.89,88.68,317.89,86.72 M319.83,93.68h-1.22l-0.72-2.68
			c-0.37,0.93-1,1.68-1.87,2.25c-0.87,0.56-1.87,0.84-2.96,0.84c-1.84,0-3.28-0.65-4.37-1.97c-1.09-1.31-1.65-3.09-1.65-5.37
			c0-1.62,0.31-2.99,0.94-4.15c0.59-1.15,1.4-2,2.43-2.59c1-0.59,2.06-0.88,3.21-0.88c0.97,0,1.81,0.16,2.5,0.5
			c0.68,0.34,1.28,0.81,1.78,1.47v-7.9h1.94V93.68z"/>
		<path class="st0" d="M332.96,90.53c0.41-0.78,0.59-1.75,0.59-2.9v-1.41c-1.06-0.16-1.87-0.22-2.46-0.22
			c-1.66,0-2.93,0.31-3.84,0.94c-0.9,0.63-1.34,1.56-1.34,2.78c0,1,0.31,1.78,0.91,2.34c0.59,0.59,1.38,0.87,2.4,0.87
			c0.78,0,1.5-0.19,2.15-0.59C332.03,91.93,332.56,91.34,332.96,90.53 M335.49,84.94v8.74h-1.25l-0.72-2.65
			c-0.41,1.03-1.06,1.78-1.91,2.28c-0.87,0.53-1.87,0.78-3.03,0.78c-1.34,0-2.49-0.34-3.4-1.06c-0.91-0.72-1.38-1.75-1.38-3.15
			c0-1.53,0.59-2.71,1.81-3.5c1.19-0.78,2.81-1.19,4.9-1.19c1.03,0,2.06,0.09,3.03,0.25v-0.69c0-1.53-0.25-2.68-0.78-3.46
			c-0.53-0.78-1.47-1.16-2.87-1.16c-1.65,0-3.12,0.56-4.46,1.72l-0.56-0.94c0.66-0.56,1.47-1,2.4-1.31c0.94-0.31,1.9-0.47,2.9-0.47
			c1.78,0,3.09,0.47,3.99,1.37C335.06,81.44,335.49,82.91,335.49,84.94"/>
		<path class="st0" d="M355.09,73.64l1.53,1.09c-1.78,0.91-3.37,1.84-4.84,2.81l-0.37-0.44C352.43,76.01,353.68,74.86,355.09,73.64
			 M348.35,85.47h7.99c0.03-0.47,0.06-0.75,0.06-0.87c0-1.22-0.28-2.31-0.84-3.28c-0.56-0.97-1.5-1.44-2.78-1.44
			c-1.28,0-2.34,0.53-3.12,1.63C348.84,82.6,348.41,83.91,348.35,85.47 M348.35,86.25c0.03,2,0.5,3.62,1.34,4.87
			c0.84,1.28,2.12,1.9,3.87,1.9c0.81,0,1.53-0.1,2.12-0.31c0.59-0.19,1.19-0.5,1.78-0.97l0.5,0.78c-1.28,1.03-2.93,1.56-4.9,1.56
			c-1.56,0-2.84-0.34-3.87-1.03c-1.03-0.69-1.78-1.59-2.25-2.75c-0.47-1.15-0.72-2.4-0.72-3.77c0-1.31,0.28-2.53,0.81-3.65
			c0.53-1.12,1.28-2.03,2.28-2.71c1-0.69,2.18-1.03,3.52-1.03c1.94,0,3.37,0.59,4.31,1.78c0.94,1.19,1.41,2.68,1.41,4.49
			c0,0.38-0.03,0.66-0.06,0.84H348.35z"/>
		<path class="st0" d="M377.77,73.64l1.53,1.09c-1.78,0.91-3.37,1.84-4.84,2.81l-0.37-0.44C375.12,76.02,376.37,74.86,377.77,73.64
			 M381.27,93.68h-1.25l-0.72-2.65c-0.5,1.03-1.18,1.78-2.06,2.28c-0.87,0.53-1.78,0.78-2.74,0.78c-1.72,0-3-0.53-3.81-1.62
			c-0.84-1.06-1.25-2.53-1.25-4.43v-8.49h1.97v7.74c0,1.03,0.06,1.97,0.22,2.75c0.13,0.81,0.44,1.5,0.97,2.09
			c0.5,0.59,1.28,0.91,2.31,0.91c1.34,0,2.43-0.59,3.21-1.81c0.78-1.19,1.18-2.84,1.18-4.99v-6.68h1.97V93.68z"/>
		<path class="st0" d="M398.46,85.19v8.49h-1.97v-7.74c0-1.65-0.22-3.03-0.62-4.12c-0.41-1.09-1.34-1.62-2.81-1.62
			c-1.37,0-2.46,0.59-3.27,1.75c-0.84,1.16-1.25,2.78-1.25,4.84v6.9h-1.97V79.54h1.22l0.75,2.68c0.5-1.03,1.19-1.81,2.09-2.34
			c0.9-0.5,1.84-0.75,2.87-0.75c1.68,0,2.93,0.53,3.74,1.59C398.05,81.82,398.46,83.29,398.46,85.19"/>
		<path class="st0" d="M405.64,93.68h-1.97V79.54h1.97V93.68z M403.23,75.33c0-0.41,0.13-0.72,0.38-0.97
			c0.25-0.25,0.59-0.37,1.06-0.37c0.44,0,0.78,0.13,1.03,0.34c0.25,0.25,0.37,0.56,0.37,0.97c0,0.41-0.12,0.72-0.37,0.97
			c-0.25,0.25-0.59,0.37-1.03,0.37c-0.44,0-0.78-0.12-1.03-0.37C403.36,76.01,403.23,75.7,403.23,75.33"/>
		<path class="st0" d="M410.04,86.75c0-1.41,0.31-2.71,0.94-3.87c0.59-1.15,1.47-2.06,2.59-2.74c1.09-0.66,2.37-1,3.78-1
			c1.59,0,2.9,0.38,3.99,1.09l-0.56,0.94c-1-0.78-2.06-1.15-3.21-1.15c-1.22,0-2.25,0.34-3.03,1c-0.81,0.66-1.4,1.5-1.75,2.5
			c-0.37,1-0.56,2.03-0.56,3.09c0,1.97,0.47,3.53,1.37,4.68c0.9,1.16,2.18,1.75,3.84,1.75c1.4,0,2.56-0.41,3.49-1.19l0.47,0.72
			c-0.5,0.47-1.16,0.81-1.94,1.09c-0.81,0.28-1.66,0.44-2.49,0.44c-2.16,0-3.87-0.66-5.09-2C410.66,90.74,410.04,88.97,410.04,86.75
			"/>
		<path class="st0" d="M432.63,90.53c0.41-0.78,0.59-1.75,0.59-2.9v-1.41c-1.06-0.16-1.87-0.22-2.46-0.22
			c-1.66,0-2.93,0.31-3.84,0.94c-0.91,0.63-1.34,1.56-1.34,2.78c0,1,0.31,1.78,0.91,2.34c0.59,0.59,1.38,0.87,2.4,0.87
			c0.78,0,1.5-0.19,2.15-0.59C431.69,91.93,432.22,91.34,432.63,90.53 M435.15,84.94v8.74h-1.25l-0.72-2.65
			c-0.4,1.03-1.06,1.78-1.9,2.28c-0.87,0.53-1.87,0.78-3.03,0.78c-1.34,0-2.49-0.34-3.4-1.06c-0.91-0.72-1.38-1.75-1.38-3.15
			c0-1.53,0.59-2.71,1.81-3.5c1.19-0.78,2.81-1.19,4.9-1.19c1.03,0,2.06,0.09,3.03,0.25v-0.69c0-1.53-0.25-2.68-0.78-3.46
			c-0.53-0.78-1.47-1.16-2.87-1.16c-1.65,0-3.12,0.56-4.46,1.72l-0.56-0.94c0.66-0.56,1.47-1,2.4-1.31c0.94-0.31,1.9-0.47,2.9-0.47
			c1.78,0,3.09,0.47,3.99,1.37C434.72,81.44,435.15,82.91,435.15,84.94"/>
	</g>
	<linearGradient id="SVGID_1_" gradientUnits="userSpaceOnUse" x1="0" y1="46.9392" x2="211.7625" y2="46.9392">
		<stop  offset="0.1077" style="stop-color:#FDCF85"/>
		<stop  offset="0.8727" style="stop-color:#FF8090"/>
	</linearGradient>
	<path class="st1" d="M51.87,0v31.29h-1.7v31.29H33.53V31.85v-0.55h10.22V0h-14.2v31.29h-3.23V0h-5.88v31.29H0v31.29h28.2v31.29
		h26.94V62.59h14.12V31.29h-3.19V0H51.87z M138.51,32.09v-0.8h14.88v0.64v30.65h-14.88V32.09z M167.68,31.7v-0.4h6.13v31.29h-6.13
		V31.7z M196.47,0v31.29h-9.43V0h-23.08v31.29h-6.55V0h-31.26v31.29h-10.58v31.29h-4.43V31.29h-2.24V0.22H77.65v31.29h1.51v31.07
		h-5.78v31.29h23.08V62.59h-0.72V31.51h7.12v31.07h4.77v31.29h10.61V62.59h12.21v31.29h27.57V62.59h4.71v31.29h22.28V62.59h-2.92
		V31.29h4.08v31.29h7.99v31.29h14.41V62.59h3.19V31.29h-7.29V0H196.47z"/>
</g>
</svg>
